<svg width="16" height="5" viewBox="0 0 16 5" fill="none" xmlns="http://www.w3.org/2000/svg">
<path d="M8.00001 3.29168C8.46025 3.29168 8.83334 2.93724 8.83334 2.50001C8.83334 2.06278 8.46025 1.70834 8.00001 1.70834C7.53977 1.70834 7.16668 2.06278 7.16668 2.50001C7.16668 2.93724 7.53977 3.29168 8.00001 3.29168Z" stroke="#667085" stroke-width="2" stroke-linecap="round" stroke-linejoin="round"/>
<path d="M13.8333 3.29168C14.2936 3.29168 14.6667 2.93724 14.6667 2.50001C14.6667 2.06278 14.2936 1.70834 13.8333 1.70834C13.3731 1.70834 13 2.06278 13 2.50001C13 2.93724 13.3731 3.29168 13.8333 3.29168Z" stroke="#667085" stroke-width="2" stroke-linecap="round" stroke-linejoin="round"/>
<path d="M2.16668 3.29168C2.62691 3.29168 3.00001 2.93724 3.00001 2.50001C3.00001 2.06278 2.62691 1.70834 2.16668 1.70834C1.70644 1.70834 1.33334 2.06278 1.33334 2.50001C1.33334 2.93724 1.70644 3.29168 2.16668 3.29168Z" stroke="#667085" stroke-width="2" stroke-linecap="round" stroke-linejoin="round"/>
</svg>
